<?xml version="1.0" standalone="no"?>
<!DOCTYPE svg PUBLIC "-//W3C//DTD SVG 20010904//EN"
 "http://www.w3.org/TR/2001/REC-SVG-20010904/DTD/svg10.dtd">
<svg version="1.0" xmlns="http://www.w3.org/2000/svg"
 width="896.000000pt" height="325.000000pt" viewBox="0 0 896.000000 325.000000"
 preserveAspectRatio="xMidYMid meet">

<g transform="translate(0.000000,325.000000) scale(0.100000,-0.100000)"
fill="#000000" stroke="none">
<path d="M0 1625 l0 -1625 4480 0 4480 0 0 1625 0 1625 -4480 0 -4480 0 0
-1625z m2060 830 c0 -36 -4 -57 -12 -59 -7 -2 -52 -13 -100 -24 -159 -37 -277
-112 -391 -247 -69 -81 -111 -164 -147 -290 l-26 -90 -52 -3 -52 -3 0 34 c0
45 42 191 79 271 47 104 137 214 246 301 108 87 298 162 413 164 l42 1 0 -55z
m250 35 c332 -79 589 -359 626 -681 l7 -59 -59 0 -59 0 -13 78 c-22 142 -111
285 -250 402 -94 80 -196 127 -332 155 -52 10 -55 12 -58 44 -5 53 5 81 31 81
12 0 60 -9 107 -20z m-13 -274 c28 -24 28 -26 33 -168 l5 -143 147 -5 c138 -5
148 -6 172 -29 26 -24 26 -26 26 -183 0 -90 -4 -168 -10 -179 -22 -40 -61 -49
-210 -49 l-140 0 0 -142 c0 -79 -4 -148 -8 -154 -18 -28 -56 -34 -210 -34
-220 0 -212 -7 -212 186 l0 144 -139 0 c-77 0 -151 4 -166 10 -43 16 -55 62
-55 215 0 192 14 215 133 215 35 0 98 3 140 6 l77 7 0 119 c0 125 12 177 47
197 11 6 83 11 180 11 157 0 163 -1 190 -24z m4412 -92 c28 -35 26 -56 -6 -94
-22 -27 -31 -31 -57 -26 -88 18 -103 117 -23 151 36 15 55 8 86 -31z m-1681
-346 l-3 -353 -47 -3 -48 -3 0 40 c0 46 -11 52 -30 17 -19 -37 -103 -70 -159
-62 -118 16 -211 131 -211 260 0 100 63 198 150 233 78 32 116 29 183 -11 l57
-35 0 135 0 134 55 0 55 0 -2 -352z m-1120 -3 c1 -176 0 -330 -3 -342 -4 -19
-12 -23 -45 -23 -21 0 -42 6 -47 13 -4 6 -10 109 -13 227 l-5 215 -28 -55
c-46 -91 -187 -281 -206 -278 -18 3 -84 97 -160 226 -42 71 -50 81 -56 62 -4
-12 -5 -104 -4 -206 3 -155 1 -187 -11 -194 -22 -14 -63 -12 -86 4 -18 14 -19
31 -22 340 l-4 326 54 0 c61 0 42 23 193 -227 54 -90 101 -163 104 -163 3 0
32 51 65 113 32 61 83 152 113 200 l55 88 52 -3 51 -3 3 -320z m1582 295 c24
-12 61 -34 81 -47 l36 -24 -40 -40 c-22 -22 -43 -36 -46 -31 -12 19 -90 51
-137 57 -68 9 -138 -26 -142 -71 -5 -46 28 -80 96 -100 167 -48 231 -78 259
-120 24 -37 33 -95 22 -137 -14 -52 -92 -132 -144 -146 -56 -15 -153 -14 -211
4 -47 14 -144 79 -150 100 -2 6 10 26 25 45 27 32 30 34 48 18 59 -52 186 -80
252 -55 19 6 43 24 54 39 17 23 18 31 8 56 -14 34 -29 42 -137 72 -175 49
-235 104 -235 215 0 86 44 144 137 180 57 22 167 14 224 -15z m1988 -72 l3
-67 67 -3 67 -3 0 -45 0 -45 -64 -5 -64 -5 0 -50 c-2 -224 4 -245 74 -245 35
0 40 -4 60 -42 20 -39 20 -42 4 -54 -10 -7 -38 -16 -63 -20 -59 -9 -105 14
-147 74 -30 43 -30 45 -33 193 l-3 149 -35 0 c-34 0 -34 1 -34 44 0 43 1 45
33 48 l32 3 3 73 3 73 47 -3 47 -3 3 -67z m-3157 -83 c86 -31 150 -128 153
-230 l1 -50 -110 -8 c-60 -4 -143 -6 -182 -3 -67 4 -73 3 -73 -15 0 -31 51
-79 95 -89 48 -11 110 -3 147 18 25 15 28 14 63 -12 20 -16 33 -32 28 -36 -4
-5 -35 -25 -67 -44 -51 -31 -69 -36 -120 -36 -66 0 -141 29 -185 70 -64 62
-90 195 -56 291 44 123 181 188 306 144z m1686 5 c39 -15 123 -73 122 -85 0
-5 -13 -20 -29 -33 l-28 -22 -48 25 c-81 43 -163 27 -204 -41 -44 -71 -22
-185 44 -225 46 -28 124 -25 169 5 l36 24 38 -33 c21 -18 36 -35 33 -37 -96
-70 -138 -88 -203 -88 -95 0 -196 67 -231 152 -22 51 -21 169 0 211 40 76 96
127 162 147 39 12 106 12 139 0z m497 -24 c4 -19 4 -46 0 -60 -6 -23 -9 -25
-48 -20 -50 7 -97 -13 -123 -53 -15 -22 -19 -57 -23 -182 l-5 -155 -32 -7
c-57 -11 -62 1 -69 151 -4 74 -3 183 1 243 l7 107 45 0 44 0 -6 -47 -7 -48 35
39 c37 43 81 64 138 65 34 1 37 -1 43 -33z m184 -223 l-3 -258 -41 -3 c-29 -2
-43 1 -47 11 -8 21 -21 473 -14 491 5 12 20 16 57 16 l50 0 -2 -257z m427 246
c59 -17 129 -90 149 -158 21 -72 20 -109 -5 -176 -54 -146 -200 -213 -307
-142 l-42 27 -1 -87 c-1 -49 -4 -101 -8 -118 -6 -27 -10 -30 -41 -27 -19 1
-41 8 -48 15 -9 10 -14 98 -19 340 l-6 327 58 0 58 0 -7 -42 -6 -43 32 38 c47
54 110 69 193 46z m-4212 -296 l38 -6 -6 -51 c-26 -186 -147 -400 -301 -529
-105 -89 -272 -164 -406 -182 l-48 -6 0 64 0 64 82 16 c96 19 221 77 295 136
68 55 176 199 207 276 13 33 32 97 42 143 21 90 19 88 97 75z m-1499 -50 c26
-193 128 -352 301 -470 114 -77 180 -103 298 -118 l47 -6 0 -66 0 -66 -52 6
c-60 8 -193 49 -253 79 -165 85 -327 250 -401 412 -29 63 -64 196 -64 243 l0
33 59 0 58 0 7 -47z m4916 -342 c0 -5 -18 -11 -40 -13 -38 -3 -48 1 -33 15 10
10 73 8 73 -2z m177 -21 c2 -22 2 -22 -6 -5 -4 11 -19 23 -32 27 -21 6 -21 7
6 5 24 -2 30 -7 32 -27z m-422 -20 c16 0 25 6 25 15 0 8 5 15 10 15 6 0 10
-18 10 -39 0 -22 -4 -43 -10 -46 -5 -3 -10 3 -10 13 0 43 -56 37 -63 -6 -2
-15 -4 0 -5 33 -1 45 2 54 8 38 6 -16 18 -23 35 -23z m-1373 5 c3 -14 1 -28
-3 -31 -5 -3 -9 9 -9 25 0 38 6 40 12 6z m1760 -26 c5 -3 3 -9 -6 -12 -13 -5
-16 0 -15 26 1 21 3 25 6 12 3 -11 10 -23 15 -26z m-205 -21 c-2 -13 -4 -5 -4
17 -1 22 1 32 4 23 2 -10 2 -28 0 -40z m-1630 5 c-3 -10 -5 -4 -5 12 0 17 2
24 5 18 2 -7 2 -21 0 -30z m1449 -172 c106 -47 160 -142 151 -263 -9 -108 -51
-175 -138 -219 l-60 -30 -1012 -1 c-1004 -1 -1012 -1 -1052 20 -88 44 -155
152 -155 247 0 53 29 133 62 171 39 45 105 83 158 92 23 4 483 6 1023 4 916
-3 985 -5 1023 -21z"/>
<path d="M2080 2103 c-8 -3 -27 -17 -42 -31 -34 -32 -38 -87 -9 -124 l20 -24
-34 -13 c-44 -15 -92 -71 -101 -115 -8 -46 20 -104 64 -130 19 -10 70 -31 115
-46 116 -38 118 -69 7 -109 -72 -26 -120 -71 -120 -111 0 -35 41 -86 77 -95
44 -11 52 -22 40 -54 -5 -15 -7 -36 -4 -45 12 -30 32 -11 35 32 3 39 5 42 28
36 21 -5 24 -3 24 18 0 29 -20 49 -75 75 -50 23 -55 54 -10 64 17 3 56 18 87
32 44 20 61 34 76 64 38 74 -6 123 -149 170 -100 32 -119 46 -119 87 0 30 42
106 59 106 10 0 21 -50 21 -95 0 -48 9 -65 36 -65 32 0 44 27 44 104 0 36 4
66 9 66 4 0 20 11 35 25 49 45 28 137 -38 169 -35 17 -50 18 -76 9z m81 -33
c27 -15 26 -76 -3 -107 -53 -57 -146 0 -118 72 15 39 78 57 121 35z"/>
<path d="M4712 1799 c-18 -12 -39 -34 -47 -50 -32 -60 -10 -173 39 -204 124
-77 261 58 202 200 -29 70 -127 97 -194 54z"/>
<path d="M4198 1827 c-21 -7 -47 -20 -58 -29 -20 -18 -37 -64 -27 -74 3 -4 62
-8 131 -11 114 -5 126 -4 126 11 0 36 -32 78 -73 97 -48 21 -49 21 -99 6z"/>
<path d="M6984 1821 c-11 -5 -34 -25 -52 -45 -28 -32 -32 -44 -32 -92 0 -101
48 -164 127 -164 86 0 150 80 140 176 -6 60 -20 85 -57 107 -34 20 -99 29
-126 18z"/>
<path d="M4818 778 c-4 -55 13 -139 27 -135 34 11 28 168 -7 175 -13 3 -17 -6
-20 -40z"/>
<path d="M5306 803 c-4 -9 0 -23 8 -32 8 -9 16 -25 19 -36 2 -11 4 1 3 27 -1
47 -19 71 -30 41z"/>
<path d="M5610 756 c0 -19 5 -38 10 -41 6 -4 10 10 10 34 0 23 -4 41 -10 41
-5 0 -10 -15 -10 -34z"/>
<path d="M4578 773 c6 -2 18 -2 25 0 6 3 1 5 -13 5 -14 0 -19 -2 -12 -5z"/>
<path d="M5720 764 c0 -8 5 -12 10 -9 6 3 10 10 10 16 0 5 -4 9 -10 9 -5 0
-10 -7 -10 -16z"/>
<path d="M4165 759 c-11 -16 16 -69 34 -69 9 0 23 -6 30 -12 12 -11 13 -9 6 7
-4 11 -10 31 -13 45 -7 36 -42 54 -57 29z"/>
<path d="M4280 748 c0 -35 15 -51 38 -44 28 9 37 38 16 53 -28 21 -54 16 -54
-9z"/>
<path d="M4653 752 c3 -9 8 -34 12 -55 9 -54 29 -42 33 19 3 47 2 50 -23 52
-21 1 -25 -2 -22 -16z"/>
<path d="M5196 704 c11 -17 20 -22 27 -15 12 12 -8 41 -29 41 -12 0 -11 -5 2
-26z"/>
<path d="M5312 710 c0 -14 2 -19 5 -12 2 6 2 18 0 25 -3 6 -5 1 -5 -13z"/>
<path d="M4920 685 c0 -25 14 -34 24 -16 8 12 -3 41 -15 41 -5 0 -9 -11 -9
-25z"/>
<path d="M4768 693 c6 -2 18 -2 25 0 6 3 1 5 -13 5 -14 0 -19 -2 -12 -5z"/>
<path d="M5712 678 c6 -18 28 -21 28 -4 0 9 -7 16 -16 16 -9 0 -14 -5 -12 -12z"/>
</g>
</svg>
